<?xml version="1.0" encoding="UTF-8" standalone="no"?>
<!-- Created with Inkscape (http://www.inkscape.org/) -->

<svg
   width="127.43967mm"
   height="34.497654mm"
   viewBox="0 0 127.43969 34.497655"
   version="1.1"
   id="svg5"
   xml:space="preserve"
   xmlns="http://www.w3.org/2000/svg"
   xmlns:svg="http://www.w3.org/2000/svg"><defs
     id="defs2" /><g
     id="layer1"
     transform="translate(-6.8850032,-134.64732)"><text
       xml:space="preserve"
       style="font-style:normal;font-variant:normal;font-weight:normal;font-stretch:normal;font-size:11.3096px;line-height:1.25;font-family:'MOON GET!';-inkscape-font-specification:'MOON GET!';letter-spacing:0.478896px;fill:#603121;fill-opacity:1;stroke:none;stroke-width:0.28274"
       x="51.403683"
       y="144.33463"
       id="text24"><tspan
         id="tspan24"
         style="font-style:normal;font-variant:normal;font-weight:normal;font-stretch:normal;font-family:'MOON GET!';-inkscape-font-specification:'MOON GET!';letter-spacing:0.478896px;fill:#603121;fill-opacity:1;stroke-width:0.28274"
         x="51.403683"
         y="144.33463">CODEBREW</tspan></text><text
       xml:space="preserve"
       style="font-style:normal;font-variant:normal;font-weight:normal;font-stretch:normal;font-size:20.0418px;line-height:1.25;font-family:'MOON GET!';-inkscape-font-specification:'MOON GET!';letter-spacing:1.75154px;fill:#603121;fill-opacity:1;stroke:none;stroke-width:0.50104"
       x="52.357895"
       y="164.5554"
       id="text25"><tspan
         id="tspan25"
         style="font-style:normal;font-variant:normal;font-weight:normal;font-stretch:normal;font-family:'MOON GET!';-inkscape-font-specification:'MOON GET!';letter-spacing:1.75154px;fill:#603121;fill-opacity:1;stroke-width:0.50104"
         x="52.357895"
         y="164.5554">LABS</tspan></text><path
       style="fill:#ef9d39;fill-opacity:1;stroke:none;stroke-width:0.41787;stroke-linecap:round"
       d="m 38.843154,166.83188 c 0.808771,-0.36834 1.476303,-1.33647 1.49677,-2.1708 0.0087,-0.35326 -2.810196,-12.32762 -2.902027,-12.32762 -0.04563,0 -0.345203,0.16733 -0.665626,0.37185 -1.456889,0.92986 -2.423658,1.28039 -3.844167,1.39382 -1.302344,0.10399 -2.400357,-0.0246 -3.138634,-0.36758 -0.310846,-0.14441 1.868207,-0.63166 1.330817,-1.03501 -2.048644,-1.53764 -6.318679,-1.50367 -8.448231,0.0187 -1.532373,1.09545 -3.013516,0.75936 -4.852456,-0.0108 -1.058478,-0.44329 -1.535625,-0.28525 -1.547743,-0.51453 -0.0127,-0.24091 -2.801103,12.13108 -2.801855,12.42966 -0.0025,0.83992 0.662423,1.82373 1.491849,2.20856 0.421855,0.19574 0.972346,0.2052 11.940651,0.2052 10.887802,0 11.521887,-0.0107 11.940652,-0.20141 z"
       id="path9" /><path
       style="fill:#603121;fill-opacity:1;stroke-width:0.0419966"
       d="m 19.671821,141.19343 c 0,-0.25324 0.206203,-0.46028 0.459865,-0.46028 h 2.807481 c 0.253656,0 0.459867,0.20704 0.459867,0.46028 0,0.25366 -0.206211,0.46028 -0.459867,0.46028 h -2.807481 c -0.253662,0 -0.459865,-0.20662 -0.459865,-0.46028 z m 21.417846,25.95223 c -0.787435,0.99406 -1.966699,1.56437 -3.234995,1.56437 H 15.958903 c -1.268295,0 -2.44756,-0.57031 -3.235006,-1.56437 -0.787859,-0.99449 -1.073425,-2.27287 -0.78324,-3.50756 l 6.722817,-28.61691 c 0.05124,-0.21797 0.243583,-0.37042 0.468277,-0.37042 h 20.709361 c 0.194444,0 0.368729,0.11592 0.443904,0.29525 0.0748,0.1789 0.03527,0.38511 -0.101208,0.52327 l -3.980435,4.03546 5.669534,24.13335 c 0.290203,1.23469 0.0042,2.51307 -0.78324,3.50756 z m -0.153283,-3.2875 -5.730008,-24.39163 c -0.03819,-0.16211 0.0089,-0.32967 0.125562,-0.44769 l 3.359311,-3.40634 h -19.1786 l -6.635453,28.24566 c -0.222584,0.94701 -0.0038,1.92765 0.600544,2.68988 0.60391,0.76267 1.508514,1.19985 2.481163,1.19985 h 21.895769 c 0.972636,0 1.877259,-0.43718 2.481165,-1.19985 0.604325,-0.76223 0.82313,-1.74287 0.600547,-2.68988 z m -20.804698,-17.4097 h 2.807481 c 0.253656,0 0.459867,-0.2062 0.459867,-0.45985 0,-0.25367 -0.206211,-0.45987 -0.459867,-0.45987 h -2.807481 c -0.253662,0 -0.459865,0.2062 -0.459865,0.45987 0,0.25365 0.206203,0.45985 0.459865,0.45985 z m 0,4.79518 h 2.807481 c 0.253656,0 0.459867,-0.20662 0.459867,-0.46029 0,-0.25365 -0.206211,-0.45986 -0.459867,-0.45986 h -2.807481 c -0.253662,0 -0.459865,0.20621 -0.459865,0.45986 0,0.25367 0.206203,0.46029 0.459865,0.46029 z m 17.128315,-0.28012 c 0.215028,0.9151 -1.758826,1.97048 -1.758826,1.97048 0,0 -2.358938,1.51607 -4.58938,-0.42794 -0.447255,-0.38973 -0.897887,-0.64507 -1.337595,-0.79962 -1.059996,-0.37251 -2.057403,-0.16085 -2.794869,0.16084 -0.48254,0.21041 -0.851269,0.46995 -1.057472,0.63878 -1.458134,1.19354 -2.080084,1.6996 -4.674651,1.59251 -2.487462,-0.1029 -4.160608,-1.6996 -4.777532,-1.92807 l -2.779333,11.83171 c -0.178076,0.75887 -0.0028,1.54421 0.481278,2.15485 0.483388,0.61062 1.207819,0.96087 1.987282,0.96087 h 21.895769 c 0.779463,0 1.5039,-0.35025 1.987694,-0.9613 0.483802,-0.61021 0.658931,-1.39555 0.480868,-2.15442 z"
       id="path7" /><text
       xml:space="preserve"
       style="font-style:normal;font-variant:normal;font-weight:normal;font-stretch:normal;font-size:8.8449px;line-height:1.25;font-family:'Noto Sans';-inkscape-font-specification:'Noto Sans';fill:#ef9d39;fill-opacity:1;stroke-width:0.221123"
       x="22.309347"
       y="162.74568"
       id="text8"><tspan
         id="tspan8"
         style="font-style:normal;font-variant:normal;font-weight:normal;font-stretch:normal;font-family:Consolas;-inkscape-font-specification:Consolas;fill:#ef9d39;fill-opacity:1;stroke-width:0.221123"
         x="22.309347"
         y="162.74568">{}</tspan></text><path
       d="m 19.311343,134.64732 h -3.46619 l -1.290747,0.70322 c -3.810248,2.07586 -6.6554541,5.3938 -7.4705583,8.71178 l -0.1988445,0.80943 h 0.8771153 c 0.6814541,0 0.904149,-0.0855 0.9983379,-0.38342 1.1236965,-3.55386 7.4647826,-8.64815 7.4647826,-8.64815 l 3.193093,-0.11239"
       style="fill:#603121;fill-opacity:1;stroke-width:0.0155167"
       id="path12" /></g></svg>
